<svg width="51" height="22" viewBox="0 0 51 22" fill="none" xmlns="http://www.w3.org/2000/svg">
<g clip-path="url(#clip0_160_1533)">
<path d="M44.8999 6.61884C44.4034 6.60468 43.9065 6.62942 43.4136 6.69286V9.38996L43.5265 9.40122C43.5265 9.40122 44.1451 9.45594 44.8551 9.45594C46.0027 9.45594 46.6693 9.36582 47.073 8.99569C47.2713 8.80951 47.4044 8.55988 47.4512 8.28624C47.498 8.01259 47.4558 7.73053 47.3313 7.48461C46.9338 6.65585 45.6918 6.61884 44.8984 6.61884M43.4151 15.1607C44.0802 15.2042 44.7978 15.2347 45.5186 15.2074C46.0785 15.1865 46.8193 15.1414 47.3468 14.5814C47.576 14.3382 47.7206 14.0222 47.7576 13.6837C47.7945 13.3453 47.7218 13.0036 47.5509 12.7131C47.2246 12.1386 46.575 11.8585 44.9989 11.8779C44.4673 11.8807 43.9361 11.9113 43.4074 11.9696L43.4151 15.1607ZM44.7375 17.9978C43.0764 17.9978 41.522 17.9576 40.3094 17.89V4.13416C40.7316 4.09554 42.0386 4.06657 43.8884 4.0183C44.9359 3.97791 45.9849 4.03176 47.0235 4.17922C48.9878 4.50107 49.7023 5.47949 50.0117 6.01537C50.3453 6.56385 50.5019 7.20882 50.4587 7.85635C50.403 8.73339 50.1292 9.45272 49.2693 10.1608L49.1146 10.2863L49.2878 10.3764C49.8174 10.6679 50.249 11.1204 50.5252 11.6735C50.8443 12.2844 51.0073 12.9704 50.9984 13.6657C50.9984 15.1495 50.4865 16.2711 49.4518 17.0226C48.5238 17.6888 47.2447 17.9994 44.7421 17.9994" fill="#FEFEFE"/>
<path d="M37.2903 4.1261H34.2201C33.9448 4.71508 32.0331 8.82509 31.1562 11.1698L31.0959 11.3307H30.9922L30.9319 11.1698C30.0549 8.82509 28.1479 4.71508 27.868 4.1261H24.7994C24.1358 9.09545 23.8079 16.7812 23.7615 17.8803H26.8178C26.8472 16.9598 27.0297 11.1617 27.1565 9.85823L27.189 9.53638H27.2632L27.3854 9.82604C28.4046 12.2399 29.7178 15.5727 29.9343 16.1214H32.1507C32.3672 15.5711 33.6803 12.2464 34.6996 9.82604L34.8218 9.53638H34.896L34.9285 9.85823C35.0553 11.1617 35.2379 16.9598 35.2672 17.8803H38.3235C38.2786 16.7796 37.9507 9.09545 37.2856 4.1261" fill="#FEFEFE"/>
<path d="M4.47456 6.688L8.27164 8.40507C8.49989 8.51352 8.75343 8.55096 9.00167 8.51288C9.28992 8.46698 9.55371 8.31778 9.74747 8.09103C9.94123 7.86429 10.0528 7.57425 10.0629 7.27103C10.073 6.9678 9.98095 6.67043 9.80272 6.43029C9.6245 6.19015 9.37125 6.02232 9.08674 5.9558L5.02517 5.0176C4.8884 4.98101 4.74503 4.98042 4.60798 5.01589C4.47094 5.05136 4.34453 5.12176 4.24017 5.22076C4.13582 5.31976 4.05679 5.44423 4.01022 5.58295C3.96366 5.72167 3.95102 5.87027 3.97344 6.01534C3.99685 6.16189 4.0549 6.30008 4.14238 6.4175C4.22985 6.53491 4.344 6.62787 4.47456 6.688Z" fill="#EB2E4A"/>
<path d="M9.11608 3.87506C9.04091 3.9987 8.99244 4.13784 8.97401 4.28287C8.95559 4.42791 8.96765 4.57538 9.00936 4.71509C9.06036 4.87984 9.15226 5.02766 9.27576 5.14362C9.39927 5.25958 9.55001 5.33956 9.71275 5.37548C9.87548 5.4114 10.0444 5.40199 10.2026 5.3482C10.3607 5.2944 10.5024 5.19813 10.6133 5.06912L12.9874 2.20144C13.1388 2.02881 13.2445 1.81819 13.2942 1.59024C13.3438 1.3623 13.3356 1.12484 13.2704 0.901173C13.2196 0.73832 13.1384 0.587483 13.0315 0.457285C12.9246 0.327086 12.7941 0.220075 12.6475 0.142365C12.5008 0.0646548 12.3409 0.0177685 12.1768 0.00438469C12.0128 -0.0089991 11.8478 0.0113817 11.6913 0.0643631C11.4075 0.158067 11.1662 0.355973 11.0123 0.621166L9.11453 3.87506" fill="#EB2E4A"/>
<path d="M15.9339 8.60623C15.7973 8.57112 15.6551 8.56732 15.517 8.59511C15.379 8.6229 15.2483 8.6816 15.1342 8.76715C14.9996 8.86877 14.8931 9.00557 14.8255 9.16373C14.758 9.32189 14.7317 9.4958 14.7495 9.66789C14.7672 9.83998 14.8283 10.0042 14.9265 10.1438C15.0248 10.2835 15.1567 10.3937 15.309 10.4633L18.6653 11.9213C18.87 12.0176 19.0953 12.0569 19.3191 12.0351C19.5428 12.0134 19.7572 11.9315 19.9413 11.7974C20.2094 11.5936 20.3888 11.2875 20.4401 10.9463C20.4915 10.605 20.4105 10.2565 20.2151 9.9773C20.0414 9.72582 19.7858 9.54855 19.4959 9.47843L15.9385 8.61266" fill="#EB2E4A"/>
<path d="M13.7237 16.8021C13.7148 16.6561 13.6754 16.5138 13.6084 16.3851C13.5414 16.2564 13.4482 16.1445 13.3355 16.057C13.2011 15.955 13.0432 15.8917 12.8778 15.8735C12.7124 15.8554 12.5453 15.8829 12.3934 15.9535C12.2415 16.024 12.1101 16.135 12.0127 16.2752C11.9152 16.4155 11.8551 16.58 11.8383 16.7522C11.8383 16.7619 11.5382 20.5146 11.5382 20.5243C11.5132 20.7565 11.5466 20.9916 11.6353 21.2063C11.724 21.421 11.8648 21.608 12.044 21.7489C12.3128 21.9513 12.6478 22.0344 12.9754 21.9801C13.3031 21.9258 13.5966 21.7385 13.7917 21.4593C13.9688 21.2101 14.0524 20.9022 14.0268 20.5935C14.0268 20.5114 13.7175 16.8085 13.7175 16.8005" fill="#EB2E4A"/>
<path d="M5.53555 17.1626C5.6664 17.1087 5.7844 17.0257 5.88135 16.9196C5.9783 16.8134 6.05188 16.6866 6.09699 16.5479C6.14839 16.3835 6.15729 16.2079 6.1228 16.0388C6.08832 15.8697 6.01166 15.713 5.90052 15.5845C5.78939 15.4559 5.6477 15.3601 5.48969 15.3066C5.33169 15.2532 5.16293 15.2439 5.00039 15.2798L1.45851 16.1488C1.23809 16.1953 1.03313 16.3007 0.863879 16.4548C0.694624 16.6089 0.566926 16.8063 0.493391 17.0274C0.390483 17.3561 0.417237 17.7138 0.56777 18.0219C0.718303 18.33 0.980289 18.5633 1.29612 18.6705C1.57871 18.7687 1.88599 18.7567 2.1607 18.6367L5.53555 17.1674" fill="#EB2E4A"/>
<path d="M2.68803 9.16304C2.77793 9.27533 2.89016 9.36599 3.017 9.42878C3.14383 9.49157 3.28225 9.52499 3.4227 9.52673C3.58913 9.5271 3.75271 9.48173 3.89688 9.39521C4.04106 9.30869 4.16071 9.18409 4.24374 9.03401C4.32677 8.88393 4.37024 8.71369 4.36974 8.54052C4.36923 8.36735 4.32478 8.19739 4.24088 8.04784C4.24088 8.03979 2.35858 4.8213 2.3524 4.81325C2.24135 4.61015 2.08144 4.4406 1.88837 4.32125C1.6953 4.20191 1.4757 4.13687 1.25117 4.13254C0.918901 4.13254 0.600244 4.26987 0.365298 4.51432C0.130351 4.75877 -0.00164076 5.09032 -0.00164076 5.43603C-0.00265626 5.74605 0.103888 6.04604 0.298414 6.28088L2.68803 9.16304Z" fill="#EB2E4A"/>
<path d="M11.9326 4.88405C11.9326 4.89371 11.5367 9.16304 11.5367 9.17269C11.5077 9.43226 11.5518 9.69501 11.6635 9.92904C11.7959 10.1979 12.0138 10.4105 12.2802 10.5307C12.5465 10.6508 12.8447 10.671 13.1237 10.5878C13.4028 10.5046 13.6454 10.3231 13.8101 10.0744C13.9749 9.82565 14.0514 9.52514 14.0268 9.22419C14.0268 9.21453 13.6324 4.92429 13.6309 4.91624C13.6237 4.7956 13.5926 4.6778 13.5396 4.57025C13.4371 4.36069 13.2587 4.20212 13.0438 4.12938C12.8288 4.05665 12.5949 4.07573 12.3935 4.18242C12.2661 4.25031 12.157 4.35015 12.076 4.47293C11.995 4.59571 11.9446 4.73756 11.9295 4.88566" fill="#EB2E4A"/>
<path d="M15.889 11.696L11.8475 12.6326C11.6017 12.6842 11.3755 12.8089 11.1964 12.9914C10.9897 13.2051 10.8612 13.487 10.8329 13.7887C10.8047 14.0903 10.8785 14.3928 11.0416 14.6439C11.2047 14.895 11.4469 15.0791 11.7264 15.1643C12.006 15.2495 12.3053 15.2306 12.5729 15.1108L16.3886 13.3841C16.4964 13.34 16.5944 13.2731 16.6762 13.1878C16.836 13.0215 16.9257 12.796 16.9257 12.561C16.9257 12.3259 16.836 12.1004 16.6762 11.9342C16.5745 11.8298 16.4495 11.7534 16.3123 11.7118C16.1751 11.6702 16.0302 11.6648 15.8905 11.696" fill="#EB2E4A"/>
<path d="M10.8809 17.721L8.77894 14.0101C8.65582 13.7826 8.47212 13.5971 8.24997 13.4758C7.99091 13.3386 7.69405 13.2994 7.41026 13.3649C7.12647 13.4304 6.87341 13.5966 6.69443 13.8349C6.51546 14.0732 6.42171 14.3689 6.42926 14.6713C6.4368 14.9736 6.54516 15.2638 6.73578 15.4922L9.4904 18.7364C9.58035 18.8496 9.69591 18.9377 9.82669 18.9929C9.95747 19.0481 10.0994 19.0687 10.2397 19.0527C10.38 19.0368 10.5143 18.9848 10.6305 18.9015C10.7467 18.8182 10.8413 18.7062 10.9056 18.5755C10.9695 18.4426 11.0007 18.2952 10.9964 18.1466C10.9921 17.998 10.9524 17.8529 10.8809 17.7242" fill="#EB2E4A"/>
<path d="M3.82647 14.6264L6.57026 11.4079C6.74049 11.216 6.85334 10.9767 6.89506 10.7192C6.93941 10.421 6.88299 10.1162 6.73544 9.85646C6.58788 9.59678 6.35832 9.39838 6.08589 9.2951C5.81347 9.19183 5.51505 9.19006 5.24152 9.29011C4.96798 9.39016 4.73627 9.58582 4.58588 9.84374L2.47004 13.5643C2.39449 13.6884 2.34976 13.8301 2.33986 13.9766C2.32997 14.1231 2.35522 14.2699 2.41334 14.4038C2.47146 14.5377 2.56063 14.6544 2.67284 14.7435C2.78506 14.8327 2.9168 14.8914 3.05623 14.9145C3.19786 14.9374 3.34275 14.9233 3.47779 14.8732C3.61283 14.8232 3.73374 14.7389 3.82956 14.628" fill="#EB2E4A"/>
</g>
<defs>
<clipPath id="clip0_160_1533">
<rect width="51" height="22" fill="white"/>
</clipPath>
</defs>
</svg>
