<svg width="18" height="18" viewBox="0 0 18 18" fill="none" xmlns="http://www.w3.org/2000/svg">
<path d="M9.11334 8.19959C9.04251 8.1925 8.95751 8.1925 8.87959 8.19959C7.19376 8.14292 5.85501 6.76167 5.85501 5.06167C5.85501 3.32626 7.25751 1.91667 9.00001 1.91667C10.7354 1.91667 12.145 3.32626 12.145 5.06167C12.1379 6.76167 10.7992 8.14292 9.11334 8.19959Z" stroke="#252525" stroke-linecap="round" stroke-linejoin="round"/>
<path d="M5.57167 10.8133C3.8575 11.9608 3.8575 13.8308 5.57167 14.9712C7.51958 16.2746 10.7142 16.2746 12.6621 14.9712C14.3762 13.8237 14.3762 11.9537 12.6621 10.8133C10.7212 9.51708 7.52667 9.51708 5.57167 10.8133Z" stroke="#252525" stroke-linecap="round" stroke-linejoin="round"/>
</svg>
