<svg width="18" height="18" viewBox="0 0 18 18" fill="none" xmlns="http://www.w3.org/2000/svg">
<path d="M10.2254 2.98625L11.4721 5.47958C11.6421 5.82666 12.0954 6.15958 12.4779 6.22333L14.7375 6.59874C16.1825 6.83958 16.5225 7.88791 15.4812 8.92208L13.7246 10.6787C13.4271 10.9762 13.2642 11.55 13.3562 11.9608L13.8592 14.1354C14.2558 15.8567 13.3421 16.5225 11.8192 15.6229L9.70125 14.3692C9.31875 14.1425 8.68833 14.1425 8.29875 14.3692L6.18083 15.6229C4.665 16.5225 3.74416 15.8496 4.14083 14.1354L4.64375 11.9608C4.73583 11.55 4.57291 10.9762 4.27541 10.6787L2.51875 8.92208C1.48458 7.88791 1.8175 6.83958 3.2625 6.59874L5.52208 6.22333C5.8975 6.15958 6.35083 5.82666 6.52083 5.47958L7.7675 2.98625C8.4475 1.63333 9.5525 1.63333 10.2254 2.98625Z" stroke="#252525" stroke-linecap="round" stroke-linejoin="round"/>
</svg>
