<svg width="81" height="81" viewBox="0 0 81 81" fill="none" xmlns="http://www.w3.org/2000/svg">
<path d="M40.4997 0.0833435C18.2301 0.0833435 0.0830078 18.2304 0.0830078 40.5C0.0830078 62.7696 18.2301 80.9167 40.4997 80.9167C62.7693 80.9167 80.9163 62.7696 80.9163 40.5C80.9163 18.2304 62.7693 0.0833435 40.4997 0.0833435ZM59.8188 31.2042L36.9026 54.1204C36.3368 54.6863 35.5688 55.0096 34.7605 55.0096C33.9522 55.0096 33.1843 54.6863 32.6184 54.1204L21.1805 42.6825C20.0084 41.5104 20.0084 39.5704 21.1805 38.3983C22.3526 37.2263 24.2926 37.2263 25.4647 38.3983L34.7605 47.6942L55.5347 26.92C56.7068 25.7479 58.6468 25.7479 59.8188 26.92C60.9909 28.0921 60.9909 29.9917 59.8188 31.2042Z" fill="#2FA33A"/>
</svg>
