<svg width="18" height="18" viewBox="0 0 18 18" fill="none" xmlns="http://www.w3.org/2000/svg">
<path d="M13.0739 5.49373C12.9039 5.46539 12.7268 5.45832 12.5427 5.45832H5.45934C5.26101 5.45832 5.06976 5.47248 4.88559 5.50082C4.98476 5.30248 5.12642 5.11834 5.29642 4.94834L7.59851 2.63916C8.56892 1.67583 10.1414 1.67583 11.1118 2.63916L12.3514 3.89288C12.8048 4.33913 13.0456 4.90581 13.0739 5.49373Z" stroke="#252525" stroke-linecap="round" stroke-linejoin="round"/>
<path d="M6.87501 13.9583C6.87501 14.4896 6.72626 14.9925 6.46418 15.4175C5.97543 16.2392 5.07584 16.7917 4.04168 16.7917C3.00751 16.7917 2.10793 16.2392 1.61918 15.4175C1.35709 14.9925 1.20834 14.4896 1.20834 13.9583C1.20834 12.3929 2.47626 11.125 4.04168 11.125C5.60709 11.125 6.87501 12.3929 6.87501 13.9583Z" stroke="#252525" stroke-miterlimit="10" stroke-linecap="round" stroke-linejoin="round"/>
<path d="M5.09832 13.9438H2.98749" stroke="#252525" stroke-miterlimit="10" stroke-linecap="round" stroke-linejoin="round"/>
<path d="M4.04169 12.9097V15.0276" stroke="#252525" stroke-miterlimit="10" stroke-linecap="round" stroke-linejoin="round"/>
<path d="M16.0833 9V12.5417C16.0833 14.6667 14.6667 16.0833 12.5417 16.0833H5.90457C6.12416 15.8992 6.31541 15.6725 6.46416 15.4175C6.72624 14.9925 6.87499 14.4896 6.87499 13.9583C6.87499 12.3929 5.60707 11.125 4.04166 11.125C3.19166 11.125 2.43374 11.5004 1.91666 12.0883V9C1.91666 7.07334 3.07832 5.7275 4.88457 5.50083C5.06874 5.4725 5.25999 5.45834 5.45832 5.45834H12.5417C12.7258 5.45834 12.9029 5.46541 13.0729 5.49374C14.9004 5.70624 16.0833 7.05917 16.0833 9Z" stroke="#252525" stroke-linecap="round" stroke-linejoin="round"/>
<path d="M16.0833 9.35417H13.9583C13.1792 9.35417 12.5417 9.99167 12.5417 10.7708C12.5417 11.55 13.1792 12.1875 13.9583 12.1875H16.0833" stroke="#252525" stroke-linecap="round" stroke-linejoin="round"/>
</svg>
